<svg width="195" height="40" viewBox="0 0 195 40" fill="none" xmlns="http://www.w3.org/2000/svg">
<path d="M19.483 0.931C8.741 0.931 0 9.672 0 20.414C0 31.156 8.741 39.897 19.483 39.897C30.225 39.897 38.966 31.156 38.966 20.414C38.966 9.672 30.225 0.931 19.483 0.931ZM19.483 32.103C13.037 32.103 7.793 26.859 7.793 20.413C7.793 13.967 13.037 8.723 19.483 8.723C25.929 8.723 31.173 13.967 31.173 20.413C31.172 26.86 25.929 32.103 19.483 32.103Z" fill="#AAACB2"/>
<path d="M97.414 0.931C86.672 0.931 77.931 9.672 77.931 20.414C77.931 31.156 86.672 39.897 97.414 39.897C108.156 39.897 116.897 31.156 116.897 20.414C116.897 9.672 108.156 0.931 97.414 0.931ZM97.414 32.103C90.968 32.103 85.724 26.859 85.724 20.413C85.724 13.967 90.968 8.723 97.414 8.723C103.86 8.723 109.104 13.967 109.104 20.413C109.103 26.86 103.86 32.103 97.414 32.103Z" fill="#AAACB2"/>
<path d="M175.345 0.931C164.603 0.931 155.862 9.672 155.862 20.414C155.862 31.156 164.603 39.897 175.345 39.897C186.087 39.897 194.828 31.156 194.828 20.414C194.828 9.672 186.087 0.931 175.345 0.931ZM175.345 32.103C168.899 32.103 163.655 26.859 163.655 20.413C163.655 13.967 168.899 8.723 175.345 8.723C181.791 8.723 187.035 13.967 187.035 20.413C187.034 26.86 181.791 32.103 175.345 32.103Z" fill="#AAACB2"/>
</svg>
