<svg width="246" height="240" viewBox="0 0 246 240" fill="none" xmlns="http://www.w3.org/2000/svg">
<path d="M122.568 3.12266e-07C98.3275 -0.00170857 74.6311 7.01058 54.4753 20.1501C34.3194 33.2896 18.6094 51.9661 9.33183 73.8178C0.0542889 95.6696 -2.37405 119.715 2.35391 142.913C7.08186 166.112 18.7538 187.421 35.8936 204.147C53.0334 220.872 74.8712 232.263 98.6455 236.878C122.42 241.493 147.063 239.125 169.458 230.074C191.853 221.023 210.995 205.695 224.462 186.029C237.929 166.363 245.118 143.241 245.118 119.588C245.118 87.873 232.206 57.4566 209.224 35.0296C186.242 12.6027 155.071 0.00229171 122.568 3.12266e-07ZM89.2472 163.411L63.4887 119.873H82.5707V75.8086H95.9148V119.873H114.997L89.2472 163.411ZM162.556 163.411H149.203V119.303H130.112L155.879 75.7655L181.638 119.303H162.556V163.411Z" fill="#33353C"/>
</svg>
