<svg width="29" height="25" viewBox="0 0 29 25" fill="none" xmlns="http://www.w3.org/2000/svg">
<g filter="url(#filter0_d_369_508)">
<path d="M13.8497 3.0277H15.1281V4.85653H13.8497V3.0277ZM4.49245 16.1136L11.8611 0.666191H17.1167L24.4854 16.1136H19.7801L14.2936 4.14631H14.6842L9.25098 16.1136H4.49245Z" fill="white"/>
<path d="M13.8497 3.0277V2.0277H12.8497V3.0277H13.8497ZM15.1281 3.0277H16.1281V2.0277H15.1281V3.0277ZM15.1281 4.85653V5.85653H16.1281V4.85653H15.1281ZM13.8497 4.85653H12.8497V5.85653H13.8497V4.85653ZM4.49245 16.1136L3.58988 15.6831L2.9075 17.1136H4.49245V16.1136ZM11.8611 0.666191V-0.333809H11.2301L10.9585 0.235653L11.8611 0.666191ZM17.1167 0.666191L18.0193 0.235653L17.7477 -0.333809H17.1167V0.666191ZM24.4854 16.1136V17.1136H26.0703L25.3879 15.6831L24.4854 16.1136ZM19.7801 16.1136L18.8711 16.5304L19.1385 17.1136H19.7801V16.1136ZM14.2936 4.14631V3.14631H12.7351L13.3846 4.56305L14.2936 4.14631ZM14.6842 4.14631L15.5948 4.5597L16.2365 3.14631H14.6842V4.14631ZM9.25098 16.1136V17.1136H9.89521L10.1615 16.527L9.25098 16.1136ZM13.8497 4.0277H15.1281V2.0277H13.8497V4.0277ZM14.1281 3.0277V4.85653H16.1281V3.0277H14.1281ZM15.1281 3.85653H13.8497V5.85653H15.1281V3.85653ZM14.8497 4.85653V3.0277H12.8497V4.85653H14.8497ZM5.39503 16.5442L12.7636 1.09673L10.9585 0.235653L3.58988 15.6831L5.39503 16.5442ZM11.8611 1.66619H17.1167V-0.333809H11.8611V1.66619ZM16.2142 1.09673L23.5828 16.5442L25.3879 15.6831L18.0193 0.235653L16.2142 1.09673ZM24.4854 15.1136H19.7801V17.1136H24.4854V15.1136ZM20.6891 15.6969L15.2026 3.72956L13.3846 4.56305L18.8711 16.5304L20.6891 15.6969ZM14.2936 5.14631H14.6842V3.14631H14.2936V5.14631ZM13.7737 3.73291L8.34043 15.7002L10.1615 16.527L15.5948 4.5597L13.7737 3.73291ZM9.25098 15.1136H4.49245V17.1136H9.25098V15.1136Z" fill="black"/>
</g>
<defs>
<filter id="filter0_d_369_508" x="0.492462" y="0.666199" width="27.9929" height="23.4474" filterUnits="userSpaceOnUse" color-interpolation-filters="sRGB">
<feFlood flood-opacity="0" result="BackgroundImageFix"/>
<feColorMatrix in="SourceAlpha" type="matrix" values="0 0 0 0 0 0 0 0 0 0 0 0 0 0 0 0 0 0 127 0" result="hardAlpha"/>
<feOffset dy="4"/>
<feGaussianBlur stdDeviation="2"/>
<feComposite in2="hardAlpha" operator="out"/>
<feColorMatrix type="matrix" values="0 0 0 0 0 0 0 0 0 0 0 0 0 0 0 0 0 0 0.25 0"/>
<feBlend mode="normal" in2="BackgroundImageFix" result="effect1_dropShadow_369_508"/>
<feBlend mode="normal" in="SourceGraphic" in2="effect1_dropShadow_369_508" result="shape"/>
</filter>
</defs>
</svg>
